<svg id="Layer_1" data-name="Layer 1" xmlns="http://www.w3.org/2000/svg" viewBox="0 0 360 109.7"><defs><style>.cls-1{fill:#3e9ebf;}</style></defs><path class="cls-1" d="M35.34,80.23H45.86a1.05,1.05,0,1,0,0-2.1H36.39V68.66a1.05,1.05,0,1,0-2.1,0V79.18A1,1,0,0,0,35.34,80.23Z"/><path class="cls-1" d="M35.34,64.53a1,1,0,0,0,1-1.05V46.22a1.05,1.05,0,0,0-2.1,0V63.48A1,1,0,0,0,35.34,64.53Z"/><path class="cls-1" d="M35.34,42.1a1,1,0,0,0,1-1.05V31.57h9.47a1.05,1.05,0,1,0,0-2.1H35.34a1,1,0,0,0-1.05,1.05V41.05A1,1,0,0,0,35.34,42.1Z"/><path class="cls-1" d="M53.27,31.57h4.87c8.28,0,14,2.58,16,7.25a1,1,0,0,0,1,.62,1.09,1.09,0,0,0,.43-.08A1.06,1.06,0,0,0,76.09,38c-2.41-5.48-8.78-8.5-18-8.5H53.27a1.05,1.05,0,0,0,0,2.1Z"/><path class="cls-1" d="M74.81,45.51A10.37,10.37,0,0,1,69.32,53a1.05,1.05,0,0,0,.18,1.93A11,11,0,0,1,76.57,61a1.07,1.07,0,0,0,1.38.55,1.05,1.05,0,0,0,.55-1.38,12.6,12.6,0,0,0-6.39-6.49,12.46,12.46,0,0,0,4.77-7.76,1.05,1.05,0,1,0-2.07-.38Z"/><path class="cls-1" d="M77.5,65.17c0,.26,0,.53,0,.8,0,4.94-2.42,8.44-7.2,10.4a1.05,1.05,0,0,0,.4,2,1.14,1.14,0,0,0,.4-.08C76.69,76,79.63,71.77,79.63,66c0-.31,0-.61,0-.91a1,1,0,0,0-1.1-1A1.05,1.05,0,0,0,77.5,65.17Z"/><path class="cls-1" d="M66,77.59a35.92,35.92,0,0,1-6.49.54H50.6a1.05,1.05,0,1,0,0,2.1h8.93a38.33,38.33,0,0,0,6.87-.57,1,1,0,0,0,.85-1.22A1.07,1.07,0,0,0,66,77.59Z"/><path class="cls-1" d="M54.9,38.67a1.06,1.06,0,0,0,0-2.11H44.38a1.05,1.05,0,0,0-1.06,1V51a1.05,1.05,0,0,0,1.06,1H54.9a1,1,0,0,0,0-2.1H45.43V38.67Z"/><path class="cls-1" d="M60.58,49.7a1,1,0,0,0-.84,1.22,1.06,1.06,0,0,0,1,.86.68.68,0,0,0,.2,0c4.55-.84,7-3.48,7-7.4,0-2.8-1.22-6.38-7-7.47A1.05,1.05,0,0,0,60.62,39c3.56.67,5.29,2.44,5.29,5.4S64.17,49,60.58,49.7Z"/><path class="cls-1" d="M43.32,72.09a1.05,1.05,0,0,0,1.06,1H54.9a1,1,0,1,0,0-2.1H45.43V59.1H54.9a1,1,0,1,0,0-2.1H44.38a1.05,1.05,0,0,0-1.06,1Z"/><path class="cls-1" d="M62,57.15a1.07,1.07,0,0,0-1.16.93,1,1,0,0,0,.92,1.16c6,.69,6.68,3.66,6.68,5.83s-.69,5.16-6.73,5.83a1,1,0,0,0-.93,1.16,1.06,1.06,0,0,0,1,.94h.12c5.71-.63,8.6-3.3,8.6-7.92S67.64,57.8,62,57.15Z"/><path class="cls-1" d="M54.85,0A54.85,54.85,0,1,0,109.7,54.85,54.92,54.92,0,0,0,54.85,0Zm0,6.18A48.68,48.68,0,1,1,6.18,54.85,48.73,48.73,0,0,1,54.85,6.18Z"/><path class="cls-1" d="M15.93,75.37a1.1,1.1,0,1,0-1.94,1,45.93,45.93,0,0,0,6.34,9.14,1.07,1.07,0,0,0,.82.37,1.08,1.08,0,0,0,.73-.28A1.1,1.1,0,0,0,22,84.07,44.08,44.08,0,0,1,15.93,75.37Z"/><path class="cls-1" d="M21,26.14a1.06,1.06,0,0,0,.82-.38,44.23,44.23,0,0,1,7.92-7,1.1,1.1,0,1,0-1.26-1.8,46.34,46.34,0,0,0-8.3,7.4,1.1,1.1,0,0,0,.09,1.55A1.08,1.08,0,0,0,21,26.14Z"/><path class="cls-1" d="M60,11.17a43.76,43.76,0,0,1,10.3,2.49,1.07,1.07,0,0,0,.39.07,1.11,1.11,0,0,0,1-.71,1.09,1.09,0,0,0-.64-1.41A46.23,46.23,0,0,0,60.27,9a1.14,1.14,0,0,0-1.22,1A1.1,1.1,0,0,0,60,11.17Z"/><path class="cls-1" d="M10.78,45.23l.26,0a1.1,1.1,0,0,0,1.07-.84,43.54,43.54,0,0,1,3.74-9.92,1.1,1.1,0,0,0-1.95-1A45.86,45.86,0,0,0,10,43.9,1.11,1.11,0,0,0,10.78,45.23Z"/><path class="cls-1" d="M39.3,96a43.73,43.73,0,0,1-9.38-4.92,1.1,1.1,0,0,0-1.25,1.81,45.92,45.92,0,0,0,9.86,5.17,1.07,1.07,0,0,0,.39.07,1.09,1.09,0,0,0,1-.71A1.1,1.1,0,0,0,39.3,96Z"/><path class="cls-1" d="M38.74,13.83a1.07,1.07,0,0,0,.39-.07A43.25,43.25,0,0,1,49.41,11.2a1.11,1.11,0,0,0,1-1.23,1.07,1.07,0,0,0-1.23-1,45.69,45.69,0,0,0-10.8,2.69,1.1,1.1,0,0,0,.4,2.12Z"/><path class="cls-1" d="M10,66a1.1,1.1,0,0,0,1.07.84.82.82,0,0,0,.26,0,1.09,1.09,0,0,0,.8-1.33,44.17,44.17,0,0,1-1.29-10.52,1.09,1.09,0,0,0-1.09-1.09h0A1.09,1.09,0,0,0,8.67,55,46,46,0,0,0,10,66Z"/><path class="cls-1" d="M60.2,98.52a45.28,45.28,0,0,1-10.6,0,1.11,1.11,0,0,0-1.22,1,1.1,1.1,0,0,0,1,1.22,45.79,45.79,0,0,0,5.51.33,47.47,47.47,0,0,0,5.61-.34,1.09,1.09,0,0,0,1-1.22A1.11,1.11,0,0,0,60.2,98.52Z"/><path class="cls-1" d="M95.3,74.82a1.1,1.1,0,0,0-1.48.46,44,44,0,0,1-6,8.72,1.09,1.09,0,0,0,.82,1.83,1.09,1.09,0,0,0,.83-.37,46.46,46.46,0,0,0,6.32-9.15A1.1,1.1,0,0,0,95.3,74.82Z"/><path class="cls-1" d="M98.84,54.85a44.15,44.15,0,0,1-1.27,10.52,1.1,1.1,0,0,0,.81,1.33,1.1,1.1,0,0,0,1.32-.8A46.09,46.09,0,0,0,101,54.85v-.18a1,1,0,0,0-1.09-1A1.18,1.18,0,0,0,98.84,54.85Z"/><path class="cls-1" d="M97.53,44.15a1.1,1.1,0,0,0,1.06.84.84.84,0,0,0,.27,0,1.09,1.09,0,0,0,.8-1.33,45.63,45.63,0,0,0-4-10.39,1.1,1.1,0,0,0-1.94,1A44,44,0,0,1,97.53,44.15Z"/><path class="cls-1" d="M87.67,25.57a1.11,1.11,0,0,0,.82.36,1.12,1.12,0,0,0,.73-.27,1.11,1.11,0,0,0,.09-1.56A47.11,47.11,0,0,0,81,16.75a1.1,1.1,0,1,0-1.25,1.81A44.65,44.65,0,0,1,87.67,25.57Z"/><path class="cls-1" d="M79.86,91A44.18,44.18,0,0,1,70.49,96a1.09,1.09,0,0,0,.39,2.12,1.07,1.07,0,0,0,.39-.07,46,46,0,0,0,9.84-5.18A1.1,1.1,0,0,0,79.86,91Z"/><path class="cls-1" d="M173.72,52.5c0,7.14-5.59,11.31-16.31,11.31H136.7V22.15h19.52c10,0,15.36,4.22,15.36,10.83a10,10,0,0,1-5.36,9.16A10.26,10.26,0,0,1,173.72,52.5ZM144.44,28.22V39.7h10.95c5.36,0,8.39-1.9,8.39-5.71s-3-5.77-8.39-5.77Zm21.48,23.51c0-4.17-3.15-6-9-6h-12.5v12h12.5C162.77,57.74,165.92,55.89,165.92,51.73Z"/><path class="cls-1" d="M212,54.17H191.16l-4.11,9.64h-8l18.75-41.66h7.61l18.81,41.66h-8.1Zm-2.56-6.08-7.86-18.21-7.79,18.21Z"/><path class="cls-1" d="M231.27,45.66V22.15H239V45.36c0,8.57,3.87,12.26,10.59,12.26s10.54-3.69,10.54-12.26V22.15h7.61V45.66c0,12.13-6.84,18.74-18.21,18.74S231.27,57.79,231.27,45.66Z"/><path class="cls-1" d="M312.8,57.32v6.49H281.56V22.15H312v6.48H289.3V39.47h20.11v6.36H289.3V57.32Z"/><path class="cls-1" d="M351.67,63.81l-8.51-12.2a14.44,14.44,0,0,1-1.61.06h-9.4V63.81h-7.74V22.15h17.14c10.95,0,17.74,5.59,17.74,14.82,0,6.3-3.22,11-8.87,13.15L360,63.81ZM341.19,28.69h-9V45.3h9c6.79,0,10.3-3.1,10.3-8.33S348,28.69,341.19,28.69Z"/><path class="cls-1" d="M143.4,82c0-2-1.42-3.17-3.72-3.17h-3.35v9h1.35V85.14h2q.33,0,.63,0l2,2.75h1.6l-2.21-3.1A2.9,2.9,0,0,0,143.4,82Zm-5.72-1.88h2c1.56,0,2.35.63,2.35,1.88,0,1.55-1.28,1.88-2.35,1.88h-2Z"/><polygon class="cls-1" points="158.07 85.78 154.96 78.81 153.47 78.81 157.51 87.86 158.6 87.86 162.63 78.81 161.18 78.81 158.07 85.78"/><path class="cls-1" d="M192.59,83.94c0,1.8-.76,2.67-2.34,2.67s-2.35-.87-2.35-2.67V78.81h-1.35V84c0,2.52,1.34,4,3.69,4S194,86.48,194,84V78.81h-1.36Z"/><path class="cls-1" d="M209.55,78.81H206.2v9h1.36V85.14h2c2.3,0,3.72-1.21,3.72-3.16S211.85,78.81,209.55,78.81Zm-2,1.29h2c1.57,0,2.36.63,2.36,1.88,0,1.54-1.28,1.87-2.36,1.87h-2Z"/><polygon class="cls-1" points="231.02 82.63 226.22 82.63 226.22 78.81 224.87 78.81 224.87 87.86 226.22 87.86 226.22 83.91 231.02 83.91 231.02 87.86 232.37 87.86 232.37 78.81 231.02 78.81 231.02 82.63"/><path class="cls-1" d="M248.6,78.75a4.59,4.59,0,1,0,4.69,4.58A4.53,4.53,0,0,0,248.6,78.75Zm0,1.3a3.28,3.28,0,1,1-3.34,3.28A3.19,3.19,0,0,1,248.6,80.05Z"/><polygon class="cls-1" points="266.18 78.81 264.82 78.81 264.82 87.86 270.95 87.86 270.95 86.56 266.18 86.56 266.18 78.81"/><path class="cls-1" d="M284.8,82.73c-1.31-.32-2.12-.56-2.12-1.41s.71-1.29,2-1.29a3.76,3.76,0,0,1,2.07.63l.36.26.54-1.17-.25-.18a4.73,4.73,0,0,0-2.72-.82c-2.44,0-3.31,1.39-3.31,2.58,0,1.9,1.7,2.32,3.07,2.65s2.11.56,2.11,1.4-.74,1.26-2,1.26a3.62,3.62,0,0,1-2.47-.93l-.34-.36L281,86.46l.19.21a4.62,4.62,0,0,0,3.3,1.25c2.48,0,3.36-1.39,3.36-2.57C287.86,83.48,286.16,83.06,284.8,82.73Z"/><polygon class="cls-1" points="297.95 80.1 300.94 80.1 300.94 87.86 302.29 87.86 302.29 80.1 305.28 80.1 305.28 78.81 297.95 78.81 297.95 80.1"/><polygon class="cls-1" points="317.56 83.91 321.99 83.91 321.99 82.63 317.56 82.63 317.56 80.1 322.51 80.1 322.51 78.81 316.21 78.81 316.21 87.86 322.69 87.86 322.69 86.56 317.56 86.56 317.56 83.91"/><path class="cls-1" d="M341.4,82c0-2-1.43-3.17-3.72-3.17h-3.35v9h1.35V85.14h2q.33,0,.63,0l2,2.75h1.61l-2.21-3.1A2.92,2.92,0,0,0,341.4,82Zm-5.72-1.88h2c1.56,0,2.35.63,2.35,1.88,0,1.55-1.28,1.88-2.35,1.88h-2Z"/><polygon class="cls-1" points="358.49 78.81 355.7 83.35 352.91 78.81 351.37 78.81 355.01 84.73 355.01 87.86 356.36 87.86 356.36 84.73 360 78.81 358.49 78.81"/></svg>