<svg id="Layer_1" data-name="Layer 1" xmlns="http://www.w3.org/2000/svg" viewBox="0 0 109.7 109.7"><defs><style>.cls-1{fill:#3e9ebf;}</style></defs><path class="cls-1" d="M35.34,80.23H45.86a1.05,1.05,0,1,0,0-2.1H36.39V68.66a1.05,1.05,0,1,0-2.1,0V79.18A1,1,0,0,0,35.34,80.23Z"/><path class="cls-1" d="M35.34,64.53a1,1,0,0,0,1-1.05V46.22a1.05,1.05,0,0,0-2.1,0V63.48A1,1,0,0,0,35.34,64.53Z"/><path class="cls-1" d="M35.34,42.1a1,1,0,0,0,1-1.05V31.57h9.47a1.05,1.05,0,1,0,0-2.1H35.34a1,1,0,0,0-1.05,1.05V41.05A1,1,0,0,0,35.34,42.1Z"/><path class="cls-1" d="M53.27,31.57h4.87c8.28,0,14,2.58,16,7.25a1,1,0,0,0,1,.62,1.09,1.09,0,0,0,.43-.08A1.06,1.06,0,0,0,76.09,38c-2.41-5.48-8.78-8.5-18-8.5H53.27a1.05,1.05,0,0,0,0,2.1Z"/><path class="cls-1" d="M74.81,45.51A10.37,10.37,0,0,1,69.32,53a1.05,1.05,0,0,0,.18,1.93A11,11,0,0,1,76.57,61a1.07,1.07,0,0,0,1.38.55,1.05,1.05,0,0,0,.55-1.38,12.6,12.6,0,0,0-6.39-6.49,12.46,12.46,0,0,0,4.77-7.76,1.05,1.05,0,1,0-2.07-.38Z"/><path class="cls-1" d="M77.5,65.17c0,.26,0,.53,0,.8,0,4.94-2.42,8.44-7.2,10.4a1.05,1.05,0,0,0,.4,2,1.14,1.14,0,0,0,.4-.08C76.69,76,79.63,71.77,79.63,66c0-.31,0-.61,0-.91a1,1,0,0,0-1.1-1A1.05,1.05,0,0,0,77.5,65.17Z"/><path class="cls-1" d="M66,77.59a35.92,35.92,0,0,1-6.49.54H50.6a1.05,1.05,0,1,0,0,2.1h8.93a38.33,38.33,0,0,0,6.87-.57,1,1,0,0,0,.85-1.22A1.07,1.07,0,0,0,66,77.59Z"/><path class="cls-1" d="M54.9,38.67a1.06,1.06,0,0,0,0-2.11H44.38a1.05,1.05,0,0,0-1.06,1V51a1.05,1.05,0,0,0,1.06,1H54.9a1,1,0,0,0,0-2.1H45.43V38.67Z"/><path class="cls-1" d="M60.58,49.7a1,1,0,0,0-.84,1.22,1.06,1.06,0,0,0,1,.86.68.68,0,0,0,.2,0c4.55-.84,7-3.48,7-7.4,0-2.8-1.22-6.38-7-7.47A1.05,1.05,0,0,0,60.62,39c3.56.67,5.29,2.44,5.29,5.4S64.17,49,60.58,49.7Z"/><path class="cls-1" d="M43.32,72.09a1.05,1.05,0,0,0,1.06,1H54.9a1,1,0,1,0,0-2.1H45.43V59.1H54.9a1,1,0,1,0,0-2.1H44.38a1.05,1.05,0,0,0-1.06,1Z"/><path class="cls-1" d="M62,57.15a1.07,1.07,0,0,0-1.16.93,1,1,0,0,0,.92,1.16c6,.69,6.68,3.66,6.68,5.83s-.69,5.16-6.73,5.83a1,1,0,0,0-.93,1.16,1.06,1.06,0,0,0,1,.94h.12c5.71-.63,8.6-3.3,8.6-7.92S67.64,57.8,62,57.15Z"/><path class="cls-1" d="M54.85,0A54.85,54.85,0,1,0,109.7,54.85,54.92,54.92,0,0,0,54.85,0Zm0,6.18A48.68,48.68,0,1,1,6.18,54.85,48.73,48.73,0,0,1,54.85,6.18Z"/><path class="cls-1" d="M15.93,75.37a1.1,1.1,0,1,0-1.94,1,45.93,45.93,0,0,0,6.34,9.14,1.07,1.07,0,0,0,.82.37,1.08,1.08,0,0,0,.73-.28A1.1,1.1,0,0,0,22,84.07,44.08,44.08,0,0,1,15.93,75.37Z"/><path class="cls-1" d="M21,26.14a1.06,1.06,0,0,0,.82-.38,44.23,44.23,0,0,1,7.92-7,1.1,1.1,0,1,0-1.26-1.8,46.34,46.34,0,0,0-8.3,7.4,1.1,1.1,0,0,0,.09,1.55A1.08,1.08,0,0,0,21,26.14Z"/><path class="cls-1" d="M60,11.17a43.76,43.76,0,0,1,10.3,2.49,1.07,1.07,0,0,0,.39.07,1.11,1.11,0,0,0,1-.71,1.09,1.09,0,0,0-.64-1.41A46.23,46.23,0,0,0,60.27,9a1.14,1.14,0,0,0-1.22,1A1.1,1.1,0,0,0,60,11.17Z"/><path class="cls-1" d="M10.78,45.23l.26,0a1.1,1.1,0,0,0,1.07-.84,43.54,43.54,0,0,1,3.74-9.92,1.1,1.1,0,0,0-1.95-1A45.86,45.86,0,0,0,10,43.9,1.11,1.11,0,0,0,10.78,45.23Z"/><path class="cls-1" d="M39.3,96a43.73,43.73,0,0,1-9.38-4.92,1.1,1.1,0,0,0-1.25,1.81,45.92,45.92,0,0,0,9.86,5.17,1.07,1.07,0,0,0,.39.07,1.09,1.09,0,0,0,1-.71A1.1,1.1,0,0,0,39.3,96Z"/><path class="cls-1" d="M38.74,13.83a1.07,1.07,0,0,0,.39-.07A43.25,43.25,0,0,1,49.41,11.2a1.11,1.11,0,0,0,1-1.23,1.07,1.07,0,0,0-1.23-1,45.69,45.69,0,0,0-10.8,2.69,1.1,1.1,0,0,0,.4,2.12Z"/><path class="cls-1" d="M10,66a1.1,1.1,0,0,0,1.07.84.82.82,0,0,0,.26,0,1.09,1.09,0,0,0,.8-1.33,44.17,44.17,0,0,1-1.29-10.52,1.09,1.09,0,0,0-1.09-1.09h0A1.09,1.09,0,0,0,8.67,55,46,46,0,0,0,10,66Z"/><path class="cls-1" d="M60.2,98.52a45.28,45.28,0,0,1-10.6,0,1.11,1.11,0,0,0-1.22,1,1.1,1.1,0,0,0,1,1.22,45.79,45.79,0,0,0,5.51.33,47.47,47.47,0,0,0,5.61-.34,1.09,1.09,0,0,0,1-1.22A1.11,1.11,0,0,0,60.2,98.52Z"/><path class="cls-1" d="M95.3,74.82a1.1,1.1,0,0,0-1.48.46,44,44,0,0,1-6,8.72,1.09,1.09,0,0,0,.82,1.83,1.09,1.09,0,0,0,.83-.37,46.46,46.46,0,0,0,6.32-9.15A1.1,1.1,0,0,0,95.3,74.82Z"/><path class="cls-1" d="M98.84,54.85a44.15,44.15,0,0,1-1.27,10.52,1.1,1.1,0,0,0,.81,1.33,1.1,1.1,0,0,0,1.32-.8A46.09,46.09,0,0,0,101,54.85v-.18a1,1,0,0,0-1.09-1A1.18,1.18,0,0,0,98.84,54.85Z"/><path class="cls-1" d="M97.53,44.15a1.1,1.1,0,0,0,1.06.84.84.84,0,0,0,.27,0,1.09,1.09,0,0,0,.8-1.33,45.63,45.63,0,0,0-4-10.39,1.1,1.1,0,0,0-1.94,1A44,44,0,0,1,97.53,44.15Z"/><path class="cls-1" d="M87.67,25.57a1.11,1.11,0,0,0,.82.36,1.12,1.12,0,0,0,.73-.27,1.11,1.11,0,0,0,.09-1.56A47.11,47.11,0,0,0,81,16.75a1.1,1.1,0,1,0-1.25,1.81A44.65,44.65,0,0,1,87.67,25.57Z"/><path class="cls-1" d="M79.86,91A44.18,44.18,0,0,1,70.49,96a1.09,1.09,0,0,0,.39,2.12,1.07,1.07,0,0,0,.39-.07,46,46,0,0,0,9.84-5.18A1.1,1.1,0,0,0,79.86,91Z"/></svg>